<?xml version="1.0" encoding="UTF-8" standalone="no"?>
<!-- Created with Inkscape (http://www.inkscape.org/) -->

<svg
   xmlns:dc="http://purl.org/dc/elements/1.1/"
   xmlns:cc="http://creativecommons.org/ns#"
   xmlns:rdf="http://www.w3.org/1999/02/22-rdf-syntax-ns#"
   xmlns:svg="http://www.w3.org/2000/svg"
   xmlns="http://www.w3.org/2000/svg"
   xmlns:xlink="http://www.w3.org/1999/xlink"
   xmlns:sodipodi="http://sodipodi.sourceforge.net/DTD/sodipodi-0.dtd"
   xmlns:inkscape="http://www.inkscape.org/namespaces/inkscape"
   width="196.71028mm"
   height="133.23671mm"
   viewBox="0 0 196.71029 133.23671"
   version="1.1"
   id="svg8"
   inkscape:version="0.92.3 (2405546, 2018-03-11)"
   sodipodi:docname="imagotype.svg">
  <defs
     id="defs2">
    <linearGradient
       inkscape:collect="always"
       xlink:href="#SVGID_10_"
       id="linearGradient1186"
       x1="-728.06146"
       y1="644.89832"
       x2="-617.06207"
       y2="644.89832"
       gradientUnits="userSpaceOnUse" />
    <linearGradient
       gradientTransform="translate(453.87462,-500.64083)"
       inkscape:collect="always"
       xlink:href="#SVGID_10_"
       id="linearGradient961"
       x1="-792.30273"
       y1="734.60413"
       x2="-556.67804"
       y2="734.60413"
       gradientUnits="userSpaceOnUse" />
    <linearGradient
       gradientTransform="matrix(8,0,0,-8,455,4941)"
       y2="621.38"
       x2="-26.874001"
       y1="556.81"
       x1="-26.874001"
       gradientUnits="userSpaceOnUse"
       id="SVGID_10_">
      <stop
         id="stop1170"
         style="stop-color:#006DF0"
         offset="0" />
      <stop
         id="stop1172"
         style="stop-color:#00E7F0"
         offset="1" />
    </linearGradient>
    <linearGradient
       inkscape:collect="always"
       xlink:href="#SVGID_10_"
       id="linearGradient1013"
       x1="-792.30273"
       y1="734.60413"
       x2="-556.67804"
       y2="734.60413"
       gradientUnits="userSpaceOnUse" />
    <linearGradient
       inkscape:collect="always"
       xlink:href="#SVGID_10_"
       id="linearGradient1267"
       gradientUnits="userSpaceOnUse"
       x1="-728.06146"
       y1="644.89832"
       x2="-617.06207"
       y2="644.89832"
       gradientTransform="translate(453.87462,-500.64083)" />
    <linearGradient
       inkscape:collect="always"
       xlink:href="#SVGID_10_"
       id="linearGradient1685"
       gradientUnits="userSpaceOnUse"
       gradientTransform="translate(453.87462,-500.64083)"
       x1="-792.30273"
       y1="734.60413"
       x2="-556.67804"
       y2="734.60413" />
    <linearGradient
       inkscape:collect="always"
       xlink:href="#SVGID_10_"
       id="linearGradient1687"
       gradientUnits="userSpaceOnUse"
       gradientTransform="translate(453.87462,-500.64083)"
       x1="-792.30273"
       y1="734.60413"
       x2="-556.67804"
       y2="734.60413" />
    <linearGradient
       inkscape:collect="always"
       xlink:href="#SVGID_10_"
       id="linearGradient1689"
       gradientUnits="userSpaceOnUse"
       gradientTransform="translate(453.87462,-500.64083)"
       x1="-792.30273"
       y1="734.60413"
       x2="-556.67804"
       y2="734.60413" />
    <linearGradient
       inkscape:collect="always"
       xlink:href="#SVGID_10_"
       id="linearGradient1691"
       gradientUnits="userSpaceOnUse"
       gradientTransform="translate(453.87462,-500.64083)"
       x1="-792.30273"
       y1="734.60413"
       x2="-556.67804"
       y2="734.60413" />
    <linearGradient
       inkscape:collect="always"
       xlink:href="#SVGID_10_"
       id="linearGradient1693"
       gradientUnits="userSpaceOnUse"
       gradientTransform="translate(453.87462,-500.64083)"
       x1="-792.30273"
       y1="734.60413"
       x2="-556.67804"
       y2="734.60413" />
    <linearGradient
       inkscape:collect="always"
       xlink:href="#SVGID_10_"
       id="linearGradient1695"
       gradientUnits="userSpaceOnUse"
       gradientTransform="translate(453.87462,-500.64083)"
       x1="-792.30273"
       y1="734.60413"
       x2="-556.67804"
       y2="734.60413" />
    <linearGradient
       inkscape:collect="always"
       xlink:href="#SVGID_10_"
       id="linearGradient1697"
       gradientUnits="userSpaceOnUse"
       gradientTransform="translate(453.87462,-500.64083)"
       x1="-792.30273"
       y1="734.60413"
       x2="-556.67804"
       y2="734.60413" />
  </defs>
  <sodipodi:namedview
     id="base"
     pagecolor="#ffffff"
     bordercolor="#666666"
     borderopacity="1.0"
     inkscape:pageopacity="0.0"
     inkscape:pageshadow="2"
     inkscape:zoom="0.50000001"
     inkscape:cx="441.91386"
     inkscape:cy="3.4144898"
     inkscape:document-units="mm"
     inkscape:current-layer="g1062"
     showgrid="false"
     inkscape:window-width="1920"
     inkscape:window-height="1027"
     inkscape:window-x="-8"
     inkscape:window-y="-8"
     inkscape:window-maximized="1"
     showguides="false"
     inkscape:guide-bbox="true"
     inkscape:snap-global="false"
     inkscape:snap-bbox="true"
     inkscape:bbox-nodes="true"
     inkscape:bbox-paths="true"
     inkscape:snap-bbox-edge-midpoints="true"
     inkscape:snap-bbox-midpoints="true"
     inkscape:object-paths="true"
     inkscape:snap-intersection-paths="true"
     fit-margin-top="0"
     fit-margin-left="0"
     fit-margin-right="0"
     fit-margin-bottom="0">
    <sodipodi:guide
       position="-543.40075,-347.42781"
       orientation="0,1"
       id="guide1108"
       inkscape:locked="false" />
    <sodipodi:guide
       position="-541.39064,-275.35056"
       orientation="0,1"
       id="guide1110"
       inkscape:locked="false" />
    <sodipodi:guide
       position="-621.9412,-394.81217"
       orientation="0,1"
       id="guide1210"
       inkscape:locked="false" />
    <sodipodi:guide
       position="-662.05796,-491.56223"
       orientation="0,1"
       inkscape:locked="false"
       id="guide1212" />
    <sodipodi:guide
       position="-677.44112,-401.69132"
       orientation="1,0"
       id="guide1218"
       inkscape:locked="false" />
  </sodipodi:namedview>
  <metadata
     id="metadata5">
    <rdf:RDF>
      <cc:Work
         rdf:about="">
        <dc:format>image/svg+xml</dc:format>
        <dc:type
           rdf:resource="http://purl.org/dc/dcmitype/StillImage" />
        <dc:title></dc:title>
      </cc:Work>
    </rdf:RDF>
  </metadata>
  <g
     inkscape:label="Layer 1"
     inkscape:groupmode="layer"
     id="layer1"
     transform="translate(-4.8790968,-73.271226)">
    <g
       id="g1062"
       transform="matrix(0.83484568,0,0,0.83484568,287.41435,-4.2865253)">
      <path
         id="path1166"
         d="m -218.72256,92.900711 c -9.57562,0.005 -19.18584,2.602785 -38.40697,7.778349 h -17.05734 l 7.05331,31.7159 h 7.71321 10.59731 l 0.16743,-0.41188 c 0.36565,-0.90091 1.19853,-1.96308 2.04017,-2.60191 1.1479,-0.87112 2.51399,-1.32498 3.99045,-1.32498 2.59641,0 4.81525,1.40893 5.91282,3.75377 0.42693,0.91223 0.56341,1.46667 0.61135,2.48669 0.17026,3.62802 -2.54362,6.62945 -6.19498,6.85072 -2.63811,0.15992 -5.2747,-1.45309 -6.3283,-3.87159 l -0.21445,-0.49194 h -10.58955 -6.7293 l 9.03202,40.61301 14.58307,12.83489 v -6.38567 l -0.41185,-0.16743 c -0.90091,-0.36568 -1.96361,-1.19853 -2.60242,-2.04017 -0.87114,-1.1479 -1.32447,-2.514 -1.32447,-3.99048 0,-2.59638 1.40843,-4.81523 3.75327,-5.9128 0.91223,-0.42693 1.46717,-0.5634 2.48716,-0.61135 3.62804,-0.17028 6.62942,2.54363 6.85075,6.19499 0.15991,2.6381 -1.45309,5.2747 -3.8716,6.3283 l -0.49196,0.21444 v 10.23298 l 3.78891,3.33467 h 6.37429 v -22.03587 -10.59728 l -0.41185,-0.16743 c -0.90091,-0.36568 -1.96361,-1.19853 -2.60242,-2.04017 -0.87114,-1.1479 -1.32447,-2.514 -1.32447,-3.99048 0,-2.59638 1.40843,-4.81523 3.75327,-5.9128 0.91223,-0.42693 1.46717,-0.5634 2.48716,-0.61135 3.62805,-0.17028 6.62943,2.54363 6.85075,6.19499 0.15992,2.6381 -1.45309,5.2747 -3.87159,6.3283 l -0.49197,0.21444 v 10.58953 22.02812 h 11.0934 v -45.75947 -12.85814 l -0.49972,-0.20257 c -1.09307,-0.44368 -2.38183,-1.45465 -3.1569,-2.47581 -1.05693,-1.39272 -1.60716,-3.05017 -1.60716,-4.84159 0,-3.15007 1.70876,-5.84205 4.55374,-7.1737 1.10678,-0.518 1.7798,-0.68342 3.01739,-0.74157 4.40185,-0.20661 8.04363,3.08621 8.31216,7.51634 0.19402,3.20079 -1.76305,6.39926 -4.6974,7.67757 l -0.59737,0.25993 v 12.84882 45.75019 h 3.87883 l 8.17779,-7.10448 v -10.35595 -9.69915 l -0.37671,-0.15349 c -0.82455,-0.33467 -1.79708,-1.09675 -2.38178,-1.86706 -0.79717,-1.05058 -1.21232,-2.30065 -1.21232,-3.65196 0,-2.3763 1.28939,-4.40756 3.43545,-5.41208 0.83492,-0.39074 1.34229,-0.51527 2.27584,-0.55914 3.3205,-0.15587 6.06732,2.32809 6.26989,5.66994 0.14636,2.41448 -1.32946,4.82708 -3.54293,5.79138 l -0.45062,0.19635 v 9.69246 6.859 l 10.85979,-9.43456 17.06253,-76.72142 h -17.33746 c -19.08134,-5.196016 -28.62204,-7.783456 -38.19765,-7.778349 z m 9.15241,35.778169 c -0.10951,-1.5e-4 -0.2376,0.005 -0.39534,0.0135 -0.88342,0.0483 -1.29411,0.2398 -1.85621,0.86509 -0.47157,0.52451 -0.68625,1.08029 -0.68625,1.77868 0,0.69819 0.21428,1.25437 0.68522,1.77819 0.61179,0.68051 1.0401,0.86593 2.02157,0.8749 0.43887,0.008 0.73491,-0.0453 1.00769,-0.16952 0.65196,-0.29586 1.05172,-0.67707 1.35446,-1.29191 0.23532,-0.4781 0.28215,-0.67678 0.28215,-1.19166 0,-0.51472 -0.047,-0.71305 -0.28215,-1.19062 -0.31967,-0.64924 -0.64283,-0.95933 -1.3281,-1.27434 -0.31081,-0.14288 -0.47448,-0.19148 -0.80304,-0.19225 z m -33.09151,3.71608 c -0.57547,0 -1.03384,0.17666 -1.46556,0.5648 -0.56086,0.50425 -0.7135,0.85712 -0.72088,1.66606 -0.006,0.36171 0.0376,0.6056 0.14004,0.83045 0.24387,0.53731 0.55777,0.86666 1.06453,1.11619 0.39407,0.19397 0.5575,0.23255 0.98187,0.23255 0.42423,0 0.58822,-0.0387 0.98184,-0.23255 0.53509,-0.26344 0.79044,-0.52969 1.05008,-1.0945 0.15703,-0.34155 0.17581,-0.46754 0.14726,-0.98753 -0.0398,-0.72813 -0.19724,-1.06688 -0.71262,-1.53014 -0.43231,-0.38867 -0.89096,-0.56533 -1.46656,-0.56533 z m 17.09247,24.04917 c -0.0902,-2.2e-4 -0.19555,0.004 -0.32554,0.0114 -0.72813,0.0398 -1.06688,0.19775 -1.53014,0.71313 -0.3887,0.4323 -0.56536,0.89043 -0.56536,1.46605 0,0.57547 0.17669,1.03381 0.56483,1.46556 0.50424,0.56086 0.85712,0.71347 1.66606,0.72088 0.36168,0.006 0.60557,-0.0376 0.83044,-0.14004 v 0 c 0.53732,-0.24384 0.86667,-0.55827 1.1162,-1.06506 0.19394,-0.39404 0.23254,-0.55747 0.23254,-0.98184 0,-0.42426 -0.0387,-0.58822 -0.23254,-0.98184 -0.26344,-0.53509 -0.52972,-0.79044 -1.0945,-1.05008 -0.25617,-0.11777 -0.39119,-0.15803 -0.66199,-0.15864 z m 32.65849,6.18154 c -0.0826,-1.9e-4 -0.17921,0.004 -0.29816,0.0103 -0.66641,0.0364 -0.97592,0.18102 -1.39991,0.65267 -0.35574,0.39568 -0.51782,0.81471 -0.51782,1.34154 0,0.52668 0.16206,0.94637 0.51729,1.34152 0.46151,0.51332 0.78409,0.65315 1.52445,0.6599 0.33104,0.006 0.55438,-0.0345 0.76017,-0.12817 0.49178,-0.22317 0.79325,-0.51083 1.02164,-0.97462 0.17751,-0.36062 0.21291,-0.51024 0.21291,-0.89863 0,-0.3883 -0.0355,-0.53787 -0.21291,-0.89815 -0.24112,-0.48972 -0.48509,-0.72356 -1.00201,-0.96118 -0.23447,-0.10779 -0.35779,-0.14465 -0.60565,-0.1452 z m -47.21057,12.86846 c -0.0902,-2.2e-4 -0.19555,0.004 -0.32554,0.0114 -0.72813,0.0398 -1.06688,0.19775 -1.53014,0.71313 -0.3887,0.4323 -0.56536,0.89043 -0.56536,1.46605 0,0.57547 0.17669,1.03381 0.56483,1.46556 0.50425,0.56086 0.85712,0.71347 1.66606,0.72088 0.36168,0.006 0.60558,-0.0376 0.83044,-0.14004 v 0 c 0.53732,-0.24384 0.86667,-0.55827 1.1162,-1.06506 0.19394,-0.39404 0.23254,-0.55747 0.23254,-0.98184 0,-0.42426 -0.0387,-0.58822 -0.23254,-0.98184 -0.26344,-0.53509 -0.52972,-0.79044 -1.0945,-1.05008 -0.25617,-0.11777 -0.39119,-0.15803 -0.66199,-0.15864 z"
         style="opacity:1;fill:url(#linearGradient1267);fill-opacity:1;stroke:none;stroke-width:1.5;stroke-linecap:round;stroke-linejoin:round;stroke-miterlimit:4;stroke-dasharray:none;stroke-opacity:1;paint-order:normal"
         inkscape:connector-curvature="0"
         inkscape:export-filename="C:\Users\Vini\Desktop\autodot\logo\exports\imagotype.png"
         inkscape:export-xdpi="96"
         inkscape:export-ydpi="96" />
      <g
         aria-label="AUTODOT"
         style="font-style:normal;font-weight:normal;font-size:48.39356613px;line-height:1.25;font-family:sans-serif;letter-spacing:0px;word-spacing:0px;fill:url(#linearGradient961);fill-opacity:1;stroke:none;stroke-width:1.20983911"
         id="text945"
         inkscape:export-filename="C:\Users\Vini\Desktop\autodot\logo\exports\imagotype.png"
         inkscape:export-xdpi="96"
         inkscape:export-ydpi="96">
        <path
           d="m -326.22438,241.21942 h 5.08133 c 0.33875,0 0.58072,-0.24196 0.58072,-0.53233 0,-0.0968 0,-0.14518 -0.0484,-0.24196 l -2.51646,-6.19438 c -0.14518,-0.33875 -0.43554,-0.48394 -0.7743,-0.33875 -0.24197,0.0968 -0.38715,0.43554 -0.29036,0.7259 l 2.2745,5.51687 h -4.30703 c -0.29036,0 -0.58072,0.24196 -0.58072,0.53232 0,0.29037 0.29036,0.53233 0.58072,0.53233 z m -3.62952,9.7755 1.16145,-2.80682 h 10.01747 l 1.16144,2.80682 c 0.14518,0.33876 0.43554,0.43555 0.72591,0.33876 0.29036,-0.0968 0.43554,-0.48394 0.33875,-0.7259 l -1.30663,-3.14559 c -0.0484,-0.19357 -0.24196,-0.33875 -0.53232,-0.33875 h -10.74338 c -0.24196,0 -0.48393,0.0968 -0.53233,0.33875 l -1.30662,3.14559 c -0.14518,0.24196 0,0.62911 0.33875,0.7259 0.29036,0.0968 0.58073,0 0.67751,-0.33876 z m -7.501,0 13.69538,-33.53674 13.69538,33.53674 c 0.0968,0.33876 0.43554,0.43555 0.7259,0.33876 0.29036,-0.0968 0.38715,-0.48394 0.29036,-0.7259 l -14.17931,-34.79498 c -0.19358,-0.48393 -0.87109,-0.53233 -1.06466,0 l -14.17931,34.79498 c -0.14519,0.24196 0,0.62911 0.29036,0.7259 0.29036,0.0968 0.62911,0 0.7259,-0.33876 z"
           style="font-style:normal;font-variant:normal;font-weight:normal;font-stretch:normal;font-family:Lovelo;-inkscape-font-specification:Lovelo;fill:url(#linearGradient1685);fill-opacity:1;stroke:none;stroke-width:1.20983911"
           id="path1064"
           inkscape:connector-curvature="0" />
        <path
           d="m -297.26159,238.70296 c 0,3.67791 2.56486,6.29116 6.19438,6.29116 3.62952,0 6.24277,-2.61325 6.24277,-6.29116 v -21.92229 c 0,-0.29036 -0.24197,-0.53233 -0.58072,-0.53233 -0.29036,0 -0.53233,0.24197 -0.53233,0.53233 v 21.92229 c 0,3.04879 -2.08092,5.2265 -5.12972,5.2265 -3.0004,0 -5.12972,-2.17771 -5.12972,-5.2265 v -21.92229 c 0,-0.29036 -0.24197,-0.53233 -0.53233,-0.53233 -0.29036,0 -0.53233,0.24197 -0.53233,0.53233 z m 18.29277,-21.92229 v 22.30944 c 0,7.25903 -5.37168,11.90481 -12.09839,11.90481 -7.01707,0 -12.09839,-4.83935 -12.09839,-11.90481 v -22.30944 c 0,-0.29036 -0.24197,-0.53233 -0.53233,-0.53233 -0.33876,0 -0.58072,0.24197 -0.58072,0.53233 v 22.30944 c 0,7.64618 5.61365,13.01787 13.21144,13.01787 7.40422,0 13.21144,-5.12972 13.21144,-13.01787 v -22.30944 c 0,-0.29036 -0.24196,-0.53233 -0.53233,-0.53233 -0.33875,0 -0.58072,0.24197 -0.58072,0.53233 z"
           style="font-style:normal;font-variant:normal;font-weight:normal;font-stretch:normal;font-family:Lovelo;-inkscape-font-specification:Lovelo;fill:url(#linearGradient1687);fill-opacity:1;stroke:none;stroke-width:1.20983911"
           id="path1066"
           inkscape:connector-curvature="0" />
        <path
           d="m -248.42189,223.12023 h -8.66245 c -0.29036,0 -0.53233,0.24197 -0.53233,0.53233 v 27.68112 c 0,0.29036 0.24197,0.53233 0.53233,0.53233 0.29036,0 0.53233,-0.24197 0.53233,-0.53233 v -27.052 h 8.13012 c 0.29036,0 0.53233,-0.29037 0.53233,-0.62912 0,-0.29036 -0.24197,-0.53233 -0.53233,-0.53233 z m -24.19678,-5.80723 h 24.14839 c 0.33875,0 0.58072,-0.24197 0.58072,-0.53233 0,-0.29036 -0.24197,-0.53233 -0.58072,-0.53233 h -24.14839 c -0.29036,0 -0.53233,0.24197 -0.53233,0.53233 0,0.29036 0.24197,0.53233 0.53233,0.53233 z m 0,6.96868 h 8.08172 v 27.052 c 0,0.29036 0.24197,0.53233 0.58073,0.53233 0.29036,0 0.53232,-0.24197 0.53232,-0.53233 v -27.68112 c 0,-0.29036 -0.24196,-0.53233 -0.53232,-0.53233 h -8.66245 c -0.29036,0 -0.53233,0.24197 -0.53233,0.53233 0,0.33875 0.24197,0.62912 0.53233,0.62912 z"
           style="font-style:normal;font-variant:normal;font-weight:normal;font-stretch:normal;font-family:Lovelo;-inkscape-font-specification:Lovelo;fill:url(#linearGradient1689);fill-opacity:1;stroke:none;stroke-width:1.20983911"
           id="path1068"
           inkscape:connector-curvature="0" />
        <path
           d="m -208.60003,228.39513 c -2.46807,-7.69458 -9.8239,-12.92108 -17.90562,-12.92108 -10.93695,0 -18.48634,7.83975 -18.48634,18.48634 0,10.69498 7.54939,18.53473 18.48634,18.53473 8.08172,0 15.43755,-5.17811 17.90562,-12.96947 0.0968,-0.29036 -0.0968,-0.62912 -0.38715,-0.7259 -0.33876,-0.0968 -0.62912,0.0484 -0.7259,0.38714 -2.3229,7.30743 -9.14639,12.14679 -16.79257,12.14679 -10.25944,0 -17.37329,-7.30743 -17.37329,-17.37329 0,-10.06586 7.11385,-17.3249 17.37329,-17.3249 7.64618,0 14.46967,4.83936 16.79257,12.09839 0.0968,0.33876 0.38714,0.48394 0.7259,0.38715 0.29036,-0.0484 0.48393,-0.43554 0.38715,-0.7259 z m -27.58434,11.22731 c 1.98414,3.48433 5.66205,5.71044 9.67872,5.71044 6.24277,0 11.17891,-5.17811 11.17891,-11.37249 0,-6.14598 -4.93614,-11.3241 -11.17891,-11.3241 -4.01667,0 -7.69458,2.17771 -9.67872,5.66205 -0.14518,0.29036 -0.0484,0.62912 0.19358,0.82269 0.29036,0.14518 0.67751,0.0484 0.82269,-0.24197 1.74217,-3.14558 5.03293,-5.12971 8.66245,-5.12971 5.61365,0 10.01747,4.64578 10.01747,10.21104 0,5.56526 -4.40382,10.21104 -10.01747,10.21104 -3.62952,0 -6.92028,-1.98413 -8.66245,-5.12972 -0.14518,-0.24196 -0.53233,-0.33875 -0.82269,-0.19357 -0.24197,0.14518 -0.33876,0.53233 -0.19358,0.7743 z"
           style="font-style:normal;font-variant:normal;font-weight:normal;font-stretch:normal;font-family:Lovelo;-inkscape-font-specification:Lovelo;fill:url(#linearGradient1691);fill-opacity:1;stroke:none;stroke-width:1.20983911"
           id="path1070"
           inkscape:connector-curvature="0" />
        <path
           d="m -191.21086,216.19995 h -10.35623 c -0.29036,0 -0.53233,0.24197 -0.53233,0.53233 v 34.6014 c 0,0.29036 0.24197,0.53233 0.53233,0.53233 0.33876,0 0.58073,-0.24197 0.58073,-0.53233 V 217.313 h 9.7755 c 8.03333,0 13.16305,4.30703 15.38915,9.87229 1.74217,4.30703 1.74217,9.38835 0,13.69538 -2.2261,5.56526 -7.35582,9.87229 -15.38915,9.87229 h -3.48434 c -0.33876,0 -0.58072,0.24196 -0.58072,0.58072 0,0.29036 0.24196,0.53233 0.58072,0.53233 h 3.48434 c 8.56566,0 14.03413,-4.64578 16.40542,-10.5498 1.88734,-4.59739 1.88734,-9.96907 0,-14.56646 -2.37129,-5.95241 -7.83976,-10.5498 -16.40542,-10.5498 z m -2.85522,21.29317 v -13.30823 h 2.85522 c 4.54899,0 7.45261,2.56486 8.75923,5.80723 0.96787,2.51646 0.96787,5.51686 0,8.08172 -1.30662,3.24237 -4.21024,5.75884 -8.75923,5.75884 h -3.43595 c -0.29036,0 -0.58072,0.29036 -0.58072,0.58072 0,0.29036 0.29036,0.58072 0.58072,0.58072 h 3.43595 c 5.08132,0 8.37208,-2.85522 9.7755,-6.53313 1.11305,-2.80683 1.11305,-6.0492 0,-8.90442 -1.40342,-3.62951 -4.69418,-6.48473 -9.7755,-6.48473 h -3.43595 c -0.29036,0 -0.58072,0.24196 -0.58072,0.58072 v 13.84056 c 0,0.29036 0.29036,0.53233 0.58072,0.53233 0.29036,0 0.58073,-0.24197 0.58073,-0.53233 z"
           style="font-style:normal;font-variant:normal;font-weight:normal;font-stretch:normal;font-family:Lovelo;-inkscape-font-specification:Lovelo;fill:url(#linearGradient1693);fill-opacity:1;stroke:none;stroke-width:1.20983911"
           id="path1072"
           inkscape:connector-curvature="0" />
        <path
           d="m -131.66183,228.39513 c -2.46807,-7.69458 -9.82389,-12.92108 -17.90562,-12.92108 -10.93695,0 -18.48634,7.83975 -18.48634,18.48634 0,10.69498 7.54939,18.53473 18.48634,18.53473 8.08173,0 15.43755,-5.17811 17.90562,-12.96947 0.0968,-0.29036 -0.0968,-0.62912 -0.38715,-0.7259 -0.33875,-0.0968 -0.62912,0.0484 -0.7259,0.38714 -2.32289,7.30743 -9.14639,12.14679 -16.79257,12.14679 -10.25944,0 -17.37329,-7.30743 -17.37329,-17.37329 0,-10.06586 7.11385,-17.3249 17.37329,-17.3249 7.64618,0 14.46968,4.83936 16.79257,12.09839 0.0968,0.33876 0.38715,0.48394 0.7259,0.38715 0.29036,-0.0484 0.48394,-0.43554 0.38715,-0.7259 z m -27.58433,11.22731 c 1.98413,3.48433 5.66204,5.71044 9.67871,5.71044 6.24277,0 11.17891,-5.17811 11.17891,-11.37249 0,-6.14598 -4.93614,-11.3241 -11.17891,-11.3241 -4.01667,0 -7.69458,2.17771 -9.67871,5.66205 -0.14518,0.29036 -0.0484,0.62912 0.19357,0.82269 0.29036,0.14518 0.67751,0.0484 0.82269,-0.24197 1.74217,-3.14558 5.03293,-5.12971 8.66245,-5.12971 5.61365,0 10.01747,4.64578 10.01747,10.21104 0,5.56526 -4.40382,10.21104 -10.01747,10.21104 -3.62952,0 -6.92028,-1.98413 -8.66245,-5.12972 -0.14518,-0.24196 -0.53233,-0.33875 -0.82269,-0.19357 -0.24197,0.14518 -0.33875,0.53233 -0.19357,0.7743 z"
           style="font-style:normal;font-variant:normal;font-weight:normal;font-stretch:normal;font-family:Lovelo;-inkscape-font-specification:Lovelo;fill:url(#linearGradient1695);fill-opacity:1;stroke:none;stroke-width:1.20983911"
           id="path1074"
           inkscape:connector-curvature="0" />
        <path
           d="m -103.33572,223.12023 h -8.66244 c -0.29037,0 -0.53233,0.24197 -0.53233,0.53233 v 27.68112 c 0,0.29036 0.24196,0.53233 0.53233,0.53233 0.29036,0 0.53232,-0.24197 0.53232,-0.53233 v -27.052 h 8.13012 c 0.29037,0 0.53233,-0.29037 0.53233,-0.62912 0,-0.29036 -0.24196,-0.53233 -0.53233,-0.53233 z M -127.5325,217.313 h 24.14839 c 0.33876,0 0.58072,-0.24197 0.58072,-0.53233 0,-0.29036 -0.24196,-0.53233 -0.58072,-0.53233 h -24.14839 c -0.29036,0 -0.53233,0.24197 -0.53233,0.53233 0,0.29036 0.24197,0.53233 0.53233,0.53233 z m 0,6.96868 h 8.08173 v 27.052 c 0,0.29036 0.24196,0.53233 0.58072,0.53233 0.29036,0 0.53233,-0.24197 0.53233,-0.53233 v -27.68112 c 0,-0.29036 -0.24197,-0.53233 -0.53233,-0.53233 h -8.66245 c -0.29036,0 -0.53233,0.24197 -0.53233,0.53233 0,0.33875 0.24197,0.62912 0.53233,0.62912 z"
           style="font-style:normal;font-variant:normal;font-weight:normal;font-stretch:normal;font-family:Lovelo;-inkscape-font-specification:Lovelo;fill:url(#linearGradient1697);fill-opacity:1;stroke:none;stroke-width:1.20983911"
           id="path1076"
           inkscape:connector-curvature="0" />
      </g>
    </g>
  </g>
</svg>
