<?xml version="1.0" encoding="UTF-8" standalone="no"?>
<!-- Created with Inkscape (http://www.inkscape.org/) -->

<svg
   xmlns:dc="http://purl.org/dc/elements/1.1/"
   xmlns:cc="http://creativecommons.org/ns#"
   xmlns:rdf="http://www.w3.org/1999/02/22-rdf-syntax-ns#"
   xmlns:svg="http://www.w3.org/2000/svg"
   xmlns="http://www.w3.org/2000/svg"
   xmlns:xlink="http://www.w3.org/1999/xlink"
   xmlns:sodipodi="http://sodipodi.sourceforge.net/DTD/sodipodi-0.dtd"
   xmlns:inkscape="http://www.inkscape.org/namespaces/inkscape"
   width="92.667381mm"
   height="87.265175mm"
   viewBox="0 0 92.667381 87.265175"
   version="1.1"
   id="svg843"
   inkscape:version="0.92.3 (2405546, 2018-03-11)"
   sodipodi:docname="isotype.svg">
  <defs
     id="defs837">
    <linearGradient
       inkscape:collect="always"
       xlink:href="#SVGID_10_"
       id="linearGradient1267"
       gradientUnits="userSpaceOnUse"
       x1="-728.06146"
       y1="644.89832"
       x2="-617.06207"
       y2="644.89832"
       gradientTransform="matrix(0.83484568,0,0,0.83484568,637.8365,-384.26722)" />
    <linearGradient
       gradientTransform="matrix(8,0,0,-8,455,4941)"
       y2="621.38"
       x2="-26.874001"
       y1="556.81"
       x1="-26.874001"
       gradientUnits="userSpaceOnUse"
       id="SVGID_10_">
      <stop
         id="stop1170"
         style="stop-color:#006DF0"
         offset="0" />
      <stop
         id="stop1172"
         style="stop-color:#00E7F0"
         offset="1" />
    </linearGradient>
  </defs>
  <sodipodi:namedview
     id="base"
     pagecolor="#ffffff"
     bordercolor="#666666"
     borderopacity="1.0"
     inkscape:pageopacity="0.0"
     inkscape:pageshadow="2"
     inkscape:zoom="0.35"
     inkscape:cx="-177.73767"
     inkscape:cy="187.76771"
     inkscape:document-units="mm"
     inkscape:current-layer="layer1"
     showgrid="false"
     fit-margin-top="0"
     fit-margin-left="0"
     fit-margin-right="0"
     fit-margin-bottom="0"
     inkscape:window-width="1920"
     inkscape:window-height="1027"
     inkscape:window-x="-8"
     inkscape:window-y="-8"
     inkscape:window-maximized="1" />
  <metadata
     id="metadata840">
    <rdf:RDF>
      <cc:Work
         rdf:about="">
        <dc:format>image/svg+xml</dc:format>
        <dc:type
           rdf:resource="http://purl.org/dc/dcmitype/StillImage" />
        <dc:title></dc:title>
      </cc:Work>
    </rdf:RDF>
  </metadata>
  <g
     inkscape:label="Layer 1"
     inkscape:groupmode="layer"
     id="layer1"
     transform="translate(-30.017496,-111.24836)">
    <path
       id="path1166"
       d="m 76.321635,111.24837 c -7.994163,0.004 -16.017213,2.17292 -32.063892,6.49372 H 30.017496 l 5.888425,26.47788 h 6.439341 8.847118 l 0.139778,-0.34386 c 0.305262,-0.75212 1.000588,-1.63886 1.703228,-2.17219 0.958319,-0.72725 2.098793,-1.10615 3.33141,-1.10615 2.1676,0 4.01999,1.17624 4.936293,3.13382 0.35642,0.76157 0.47036,1.22444 0.510381,2.076 0.142142,3.02884 -2.12353,5.53457 -5.171853,5.71929 -2.202413,0.13351 -4.403559,-1.2131 -5.283153,-3.23218 l -0.179032,-0.41069 h -8.84064 -5.617928 l 7.540343,33.9056 12.174614,10.71515 v -5.33105 l -0.343832,-0.13978 c -0.75212,-0.30529 -1.639311,-1.00059 -2.172619,-1.70323 -0.727267,-0.95832 -1.105728,-2.0988 -1.105728,-3.33143 0,-2.16758 1.175822,-4.01998 3.133401,-4.93628 0.761572,-0.35642 1.22486,-0.47035 2.076395,-0.51038 3.028855,-0.14216 5.534544,2.12354 5.719318,5.17186 0.133501,2.20241 -1.213104,4.40356 -3.232187,5.28315 l -0.41071,0.17903 v 8.54296 l 3.163155,2.78393 h 5.321548 v -18.39655 -8.84709 l -0.343831,-0.13978 c -0.75212,-0.30529 -1.639311,-1.00059 -2.172618,-1.70323 -0.727268,-0.95832 -1.105728,-2.0988 -1.105728,-3.33143 0,-2.16758 1.175821,-4.01998 3.133399,-4.93628 0.761572,-0.35642 1.224862,-0.47035 2.076395,-0.51038 3.028862,-0.14216 5.534551,2.12354 5.71932,5.17186 0.133509,2.20241 -1.213106,4.40356 -3.232181,5.28315 l -0.410718,0.17903 v 8.84062 18.39008 h 9.261276 v -38.20209 -10.73457 l -0.41719,-0.16911 c -0.912542,-0.37041 -1.98846,-1.21441 -2.635522,-2.06692 -0.882375,-1.16271 -1.341731,-2.54642 -1.341731,-4.04198 0,-2.62982 1.426551,-4.87721 3.801671,-5.98893 0.923988,-0.43245 1.485857,-0.57055 2.519053,-0.6191 3.674866,-0.17249 6.715191,2.57651 6.939372,6.27499 0.161975,2.67216 -1.471874,5.34239 -3.921604,6.40958 l -0.498713,0.217 v 10.72678 38.19435 h 3.238225 l 6.827192,-5.93114 v -8.64562 -8.0973 l -0.314494,-0.12814 c -0.688372,-0.27939 -1.500283,-0.91561 -1.988418,-1.5587 -0.665515,-0.87707 -1.0121,-1.92069 -1.0121,-3.04883 0,-1.98384 1.076441,-3.67963 2.86807,-4.51825 0.697029,-0.3262 1.120606,-0.43017 1.899975,-0.46679 2.772108,-0.13013 5.065278,1.94359 5.234388,4.73352 0.12219,2.01572 -1.10989,4.02987 -2.957796,4.83491 l -0.376198,0.16392 v 8.09171 5.72621 l 9.066244,-7.8764 14.24458,-64.05055 h -14.4741 C 92.280804,113.40422 84.315793,111.2441 76.321635,111.24837 Z m 7.640852,29.86925 c -0.09142,-1.3e-4 -0.198361,0.004 -0.330049,0.0113 -0.737518,0.0403 -1.080381,0.20019 -1.549649,0.72221 -0.393687,0.43789 -0.572913,0.90188 -0.572913,1.48493 0,0.58288 0.17889,1.0472 0.572053,1.48451 0.510752,0.56812 0.868323,0.72292 1.687701,0.73041 0.366387,0.007 0.613534,-0.0378 0.841263,-0.14152 0.544288,-0.247 0.878025,-0.56525 1.130766,-1.07855 0.196456,-0.39914 0.235553,-0.56501 0.235553,-0.99485 0,-0.42972 -0.03924,-0.59529 -0.235553,-0.99399 -0.266875,-0.54201 -0.536662,-0.80089 -1.108758,-1.06387 -0.259479,-0.11929 -0.396118,-0.15986 -0.670414,-0.1605 z m -27.626305,3.10235 c -0.480429,0 -0.863097,0.14749 -1.223517,0.47152 -0.468231,0.42097 -0.595662,0.71556 -0.601823,1.39091 -0.005,0.30197 0.03139,0.50558 0.116912,0.69329 0.203593,0.44857 0.465651,0.72353 0.888718,0.93185 0.328988,0.16194 0.465426,0.19414 0.81971,0.19414 0.354166,0 0.491072,-0.0323 0.819685,-0.19414 0.446717,-0.21993 0.659894,-0.44221 0.876654,-0.91374 0.131096,-0.28514 0.146775,-0.39032 0.122939,-0.82443 -0.03323,-0.60788 -0.164664,-0.89069 -0.594926,-1.27743 -0.360913,-0.32448 -0.743815,-0.47197 -1.224352,-0.47197 z m 14.269575,20.07735 c -0.0753,-1.9e-4 -0.163253,0.003 -0.271775,0.009 -0.607878,0.0332 -0.89068,0.16509 -1.277432,0.59535 -0.324504,0.3609 -0.471988,0.74337 -0.471988,1.22393 0,0.48043 0.147508,0.86307 0.471546,1.22351 0.420963,0.46823 0.715563,0.59564 1.390904,0.60183 0.301945,0.005 0.505555,-0.0314 0.693288,-0.11691 v 0 c 0.44858,-0.20358 0.723535,-0.46607 0.931854,-0.88917 0.161912,-0.32896 0.194136,-0.4654 0.194136,-0.81968 0,-0.35419 -0.03231,-0.49107 -0.194136,-0.81969 -0.219932,-0.44671 -0.442235,-0.65989 -0.913738,-0.87665 -0.213863,-0.0983 -0.326583,-0.13193 -0.552659,-0.13244 z m 27.264799,5.16063 c -0.06896,-1.6e-4 -0.149611,0.003 -0.248917,0.009 -0.55635,0.0304 -0.814742,0.15112 -1.16871,0.54488 -0.296987,0.33033 -0.4323,0.68016 -0.4323,1.11998 0,0.43969 0.135297,0.79007 0.431858,1.11996 0.385289,0.42854 0.654595,0.54528 1.27268,0.55091 0.276368,0.005 0.462823,-0.0288 0.634625,-0.107 0.410562,-0.18631 0.662241,-0.42646 0.852913,-0.81366 0.148193,-0.30106 0.177747,-0.42597 0.177747,-0.75021 0,-0.32417 -0.02964,-0.44904 -0.177747,-0.74982 -0.201297,-0.40884 -0.404976,-0.60406 -0.836525,-0.80244 -0.195747,-0.09 -0.298699,-0.12076 -0.505624,-0.12122 z m -39.41354,10.74318 c -0.0753,-1.8e-4 -0.163256,0.003 -0.271777,0.01 -0.607875,0.0332 -0.89068,0.16509 -1.27743,0.59535 -0.324503,0.3609 -0.471988,0.74337 -0.471988,1.22393 0,0.48043 0.147509,0.86307 0.471546,1.22351 0.420971,0.46823 0.715563,0.59564 1.390902,0.60183 0.301948,0.005 0.505566,-0.0314 0.69329,-0.11691 v 0 c 0.44858,-0.20357 0.723535,-0.46607 0.931855,-0.88917 0.161909,-0.32896 0.194135,-0.4654 0.194135,-0.81968 0,-0.35419 -0.03231,-0.49107 -0.194135,-0.81968 -0.219933,-0.44672 -0.442236,-0.6599 -0.913739,-0.87666 -0.213863,-0.0983 -0.326583,-0.13193 -0.552659,-0.13244 z"
       style="opacity:1;fill:url(#linearGradient1267);fill-opacity:1;stroke:none;stroke-width:1.25226855;stroke-linecap:round;stroke-linejoin:round;stroke-miterlimit:4;stroke-dasharray:none;stroke-opacity:1;paint-order:normal"
       inkscape:connector-curvature="0" />
  </g>
</svg>
