<?xml version="1.0" encoding="UTF-8" standalone="no"?>
<!-- Created with Inkscape (http://www.inkscape.org/) -->

<svg
   xmlns:dc="http://purl.org/dc/elements/1.1/"
   xmlns:cc="http://creativecommons.org/ns#"
   xmlns:rdf="http://www.w3.org/1999/02/22-rdf-syntax-ns#"
   xmlns:svg="http://www.w3.org/2000/svg"
   xmlns="http://www.w3.org/2000/svg"
   xmlns:xlink="http://www.w3.org/1999/xlink"
   xmlns:sodipodi="http://sodipodi.sourceforge.net/DTD/sodipodi-0.dtd"
   xmlns:inkscape="http://www.inkscape.org/namespaces/inkscape"
   width="196.7103mm"
   height="30.942415mm"
   viewBox="0 0 196.7103 30.942415"
   version="1.1"
   id="svg843"
   inkscape:version="0.92.3 (2405546, 2018-03-11)"
   sodipodi:docname="logo.svg">
  <defs
     id="defs837">
    <linearGradient
       gradientTransform="matrix(8,0,0,-8,455,4941)"
       y2="621.38"
       x2="-26.874001"
       y1="556.81"
       x1="-26.874001"
       gradientUnits="userSpaceOnUse"
       id="SVGID_10_">
      <stop
         id="stop1170"
         style="stop-color:#006DF0"
         offset="0" />
      <stop
         id="stop1172"
         style="stop-color:#00E7F0"
         offset="1" />
    </linearGradient>
    <linearGradient
       gradientTransform="translate(453.87462,-500.64083)"
       inkscape:collect="always"
       xlink:href="#SVGID_10_"
       id="linearGradient961"
       x1="-792.30273"
       y1="734.60413"
       x2="-556.67804"
       y2="734.60413"
       gradientUnits="userSpaceOnUse" />
    <linearGradient
       inkscape:collect="always"
       xlink:href="#SVGID_10_"
       id="linearGradient1671"
       gradientUnits="userSpaceOnUse"
       gradientTransform="translate(453.87462,-500.64083)"
       x1="-792.30273"
       y1="734.60413"
       x2="-556.67804"
       y2="734.60413" />
    <linearGradient
       inkscape:collect="always"
       xlink:href="#SVGID_10_"
       id="linearGradient1673"
       gradientUnits="userSpaceOnUse"
       gradientTransform="translate(453.87462,-500.64083)"
       x1="-792.30273"
       y1="734.60413"
       x2="-556.67804"
       y2="734.60413" />
    <linearGradient
       inkscape:collect="always"
       xlink:href="#SVGID_10_"
       id="linearGradient1675"
       gradientUnits="userSpaceOnUse"
       gradientTransform="translate(453.87462,-500.64083)"
       x1="-792.30273"
       y1="734.60413"
       x2="-556.67804"
       y2="734.60413" />
    <linearGradient
       inkscape:collect="always"
       xlink:href="#SVGID_10_"
       id="linearGradient1677"
       gradientUnits="userSpaceOnUse"
       gradientTransform="translate(453.87462,-500.64083)"
       x1="-792.30273"
       y1="734.60413"
       x2="-556.67804"
       y2="734.60413" />
    <linearGradient
       inkscape:collect="always"
       xlink:href="#SVGID_10_"
       id="linearGradient1679"
       gradientUnits="userSpaceOnUse"
       gradientTransform="translate(453.87462,-500.64083)"
       x1="-792.30273"
       y1="734.60413"
       x2="-556.67804"
       y2="734.60413" />
    <linearGradient
       inkscape:collect="always"
       xlink:href="#SVGID_10_"
       id="linearGradient1681"
       gradientUnits="userSpaceOnUse"
       gradientTransform="translate(453.87462,-500.64083)"
       x1="-792.30273"
       y1="734.60413"
       x2="-556.67804"
       y2="734.60413" />
    <linearGradient
       inkscape:collect="always"
       xlink:href="#SVGID_10_"
       id="linearGradient1683"
       gradientUnits="userSpaceOnUse"
       gradientTransform="translate(453.87462,-500.64083)"
       x1="-792.30273"
       y1="734.60413"
       x2="-556.67804"
       y2="734.60413" />
  </defs>
  <sodipodi:namedview
     id="base"
     pagecolor="#ffffff"
     bordercolor="#666666"
     borderopacity="1.0"
     inkscape:pageopacity="0.0"
     inkscape:pageshadow="2"
     inkscape:zoom="0.35"
     inkscape:cx="22.569744"
     inkscape:cy="169.09871"
     inkscape:document-units="mm"
     inkscape:current-layer="layer1"
     showgrid="false"
     fit-margin-top="0"
     fit-margin-left="0"
     fit-margin-right="0"
     fit-margin-bottom="0"
     inkscape:window-width="1920"
     inkscape:window-height="1027"
     inkscape:window-x="-8"
     inkscape:window-y="-8"
     inkscape:window-maximized="1" />
  <metadata
     id="metadata840">
    <rdf:RDF>
      <cc:Work
         rdf:about="">
        <dc:format>image/svg+xml</dc:format>
        <dc:type
           rdf:resource="http://purl.org/dc/dcmitype/StillImage" />
        <dc:title></dc:title>
      </cc:Work>
    </rdf:RDF>
  </metadata>
  <g
     inkscape:label="Layer 1"
     inkscape:groupmode="layer"
     id="layer1"
     transform="translate(22.980507,-162.63161)">
    <g
       transform="matrix(0.83484569,0,0,0.83484569,259.55475,-17.220435)"
       aria-label="AUTODOT"
       style="font-style:normal;font-weight:normal;font-size:48.39356613px;line-height:1.25;font-family:sans-serif;letter-spacing:0px;word-spacing:0px;fill:url(#linearGradient961);fill-opacity:1;stroke:none;stroke-width:1.20983911"
       id="text945">
      <path
         inkscape:connector-curvature="0"
         d="m -326.22438,241.21942 h 5.08133 c 0.33875,0 0.58072,-0.24196 0.58072,-0.53233 0,-0.0968 0,-0.14518 -0.0484,-0.24196 l -2.51646,-6.19438 c -0.14518,-0.33875 -0.43554,-0.48394 -0.7743,-0.33875 -0.24197,0.0968 -0.38715,0.43554 -0.29036,0.7259 l 2.2745,5.51687 h -4.30703 c -0.29036,0 -0.58072,0.24196 -0.58072,0.53232 0,0.29037 0.29036,0.53233 0.58072,0.53233 z m -3.62952,9.7755 1.16145,-2.80682 h 10.01747 l 1.16144,2.80682 c 0.14518,0.33876 0.43554,0.43555 0.72591,0.33876 0.29036,-0.0968 0.43554,-0.48394 0.33875,-0.7259 l -1.30663,-3.14559 c -0.0484,-0.19357 -0.24196,-0.33875 -0.53232,-0.33875 h -10.74338 c -0.24196,0 -0.48393,0.0968 -0.53233,0.33875 l -1.30662,3.14559 c -0.14518,0.24196 0,0.62911 0.33875,0.7259 0.29036,0.0968 0.58073,0 0.67751,-0.33876 z m -7.501,0 13.69538,-33.53674 13.69538,33.53674 c 0.0968,0.33876 0.43554,0.43555 0.7259,0.33876 0.29036,-0.0968 0.38715,-0.48394 0.29036,-0.7259 l -14.17931,-34.79498 c -0.19358,-0.48393 -0.87109,-0.53233 -1.06466,0 l -14.17931,34.79498 c -0.14519,0.24196 0,0.62911 0.29036,0.7259 0.29036,0.0968 0.62911,0 0.7259,-0.33876 z"
         style="font-style:normal;font-variant:normal;font-weight:normal;font-stretch:normal;font-family:Lovelo;-inkscape-font-specification:Lovelo;fill:url(#linearGradient1671);fill-opacity:1;stroke:none;stroke-width:1.20983911"
         id="path1064" />
      <path
         inkscape:connector-curvature="0"
         d="m -297.26159,238.70296 c 0,3.67791 2.56486,6.29116 6.19438,6.29116 3.62952,0 6.24277,-2.61325 6.24277,-6.29116 v -21.92229 c 0,-0.29036 -0.24197,-0.53233 -0.58072,-0.53233 -0.29036,0 -0.53233,0.24197 -0.53233,0.53233 v 21.92229 c 0,3.04879 -2.08092,5.2265 -5.12972,5.2265 -3.0004,0 -5.12972,-2.17771 -5.12972,-5.2265 v -21.92229 c 0,-0.29036 -0.24197,-0.53233 -0.53233,-0.53233 -0.29036,0 -0.53233,0.24197 -0.53233,0.53233 z m 18.29277,-21.92229 v 22.30944 c 0,7.25903 -5.37168,11.90481 -12.09839,11.90481 -7.01707,0 -12.09839,-4.83935 -12.09839,-11.90481 v -22.30944 c 0,-0.29036 -0.24197,-0.53233 -0.53233,-0.53233 -0.33876,0 -0.58072,0.24197 -0.58072,0.53233 v 22.30944 c 0,7.64618 5.61365,13.01787 13.21144,13.01787 7.40422,0 13.21144,-5.12972 13.21144,-13.01787 v -22.30944 c 0,-0.29036 -0.24196,-0.53233 -0.53233,-0.53233 -0.33875,0 -0.58072,0.24197 -0.58072,0.53233 z"
         style="font-style:normal;font-variant:normal;font-weight:normal;font-stretch:normal;font-family:Lovelo;-inkscape-font-specification:Lovelo;fill:url(#linearGradient1673);fill-opacity:1;stroke:none;stroke-width:1.20983911"
         id="path1066" />
      <path
         inkscape:connector-curvature="0"
         d="m -248.42189,223.12023 h -8.66245 c -0.29036,0 -0.53233,0.24197 -0.53233,0.53233 v 27.68112 c 0,0.29036 0.24197,0.53233 0.53233,0.53233 0.29036,0 0.53233,-0.24197 0.53233,-0.53233 v -27.052 h 8.13012 c 0.29036,0 0.53233,-0.29037 0.53233,-0.62912 0,-0.29036 -0.24197,-0.53233 -0.53233,-0.53233 z m -24.19678,-5.80723 h 24.14839 c 0.33875,0 0.58072,-0.24197 0.58072,-0.53233 0,-0.29036 -0.24197,-0.53233 -0.58072,-0.53233 h -24.14839 c -0.29036,0 -0.53233,0.24197 -0.53233,0.53233 0,0.29036 0.24197,0.53233 0.53233,0.53233 z m 0,6.96868 h 8.08172 v 27.052 c 0,0.29036 0.24197,0.53233 0.58073,0.53233 0.29036,0 0.53232,-0.24197 0.53232,-0.53233 v -27.68112 c 0,-0.29036 -0.24196,-0.53233 -0.53232,-0.53233 h -8.66245 c -0.29036,0 -0.53233,0.24197 -0.53233,0.53233 0,0.33875 0.24197,0.62912 0.53233,0.62912 z"
         style="font-style:normal;font-variant:normal;font-weight:normal;font-stretch:normal;font-family:Lovelo;-inkscape-font-specification:Lovelo;fill:url(#linearGradient1675);fill-opacity:1;stroke:none;stroke-width:1.20983911"
         id="path1068" />
      <path
         inkscape:connector-curvature="0"
         d="m -208.60003,228.39513 c -2.46807,-7.69458 -9.8239,-12.92108 -17.90562,-12.92108 -10.93695,0 -18.48634,7.83975 -18.48634,18.48634 0,10.69498 7.54939,18.53473 18.48634,18.53473 8.08172,0 15.43755,-5.17811 17.90562,-12.96947 0.0968,-0.29036 -0.0968,-0.62912 -0.38715,-0.7259 -0.33876,-0.0968 -0.62912,0.0484 -0.7259,0.38714 -2.3229,7.30743 -9.14639,12.14679 -16.79257,12.14679 -10.25944,0 -17.37329,-7.30743 -17.37329,-17.37329 0,-10.06586 7.11385,-17.3249 17.37329,-17.3249 7.64618,0 14.46967,4.83936 16.79257,12.09839 0.0968,0.33876 0.38714,0.48394 0.7259,0.38715 0.29036,-0.0484 0.48393,-0.43554 0.38715,-0.7259 z m -27.58434,11.22731 c 1.98414,3.48433 5.66205,5.71044 9.67872,5.71044 6.24277,0 11.17891,-5.17811 11.17891,-11.37249 0,-6.14598 -4.93614,-11.3241 -11.17891,-11.3241 -4.01667,0 -7.69458,2.17771 -9.67872,5.66205 -0.14518,0.29036 -0.0484,0.62912 0.19358,0.82269 0.29036,0.14518 0.67751,0.0484 0.82269,-0.24197 1.74217,-3.14558 5.03293,-5.12971 8.66245,-5.12971 5.61365,0 10.01747,4.64578 10.01747,10.21104 0,5.56526 -4.40382,10.21104 -10.01747,10.21104 -3.62952,0 -6.92028,-1.98413 -8.66245,-5.12972 -0.14518,-0.24196 -0.53233,-0.33875 -0.82269,-0.19357 -0.24197,0.14518 -0.33876,0.53233 -0.19358,0.7743 z"
         style="font-style:normal;font-variant:normal;font-weight:normal;font-stretch:normal;font-family:Lovelo;-inkscape-font-specification:Lovelo;fill:url(#linearGradient1677);fill-opacity:1;stroke:none;stroke-width:1.20983911"
         id="path1070" />
      <path
         inkscape:connector-curvature="0"
         d="m -191.21086,216.19995 h -10.35623 c -0.29036,0 -0.53233,0.24197 -0.53233,0.53233 v 34.6014 c 0,0.29036 0.24197,0.53233 0.53233,0.53233 0.33876,0 0.58073,-0.24197 0.58073,-0.53233 V 217.313 h 9.7755 c 8.03333,0 13.16305,4.30703 15.38915,9.87229 1.74217,4.30703 1.74217,9.38835 0,13.69538 -2.2261,5.56526 -7.35582,9.87229 -15.38915,9.87229 h -3.48434 c -0.33876,0 -0.58072,0.24196 -0.58072,0.58072 0,0.29036 0.24196,0.53233 0.58072,0.53233 h 3.48434 c 8.56566,0 14.03413,-4.64578 16.40542,-10.5498 1.88734,-4.59739 1.88734,-9.96907 0,-14.56646 -2.37129,-5.95241 -7.83976,-10.5498 -16.40542,-10.5498 z m -2.85522,21.29317 v -13.30823 h 2.85522 c 4.54899,0 7.45261,2.56486 8.75923,5.80723 0.96787,2.51646 0.96787,5.51686 0,8.08172 -1.30662,3.24237 -4.21024,5.75884 -8.75923,5.75884 h -3.43595 c -0.29036,0 -0.58072,0.29036 -0.58072,0.58072 0,0.29036 0.29036,0.58072 0.58072,0.58072 h 3.43595 c 5.08132,0 8.37208,-2.85522 9.7755,-6.53313 1.11305,-2.80683 1.11305,-6.0492 0,-8.90442 -1.40342,-3.62951 -4.69418,-6.48473 -9.7755,-6.48473 h -3.43595 c -0.29036,0 -0.58072,0.24196 -0.58072,0.58072 v 13.84056 c 0,0.29036 0.29036,0.53233 0.58072,0.53233 0.29036,0 0.58073,-0.24197 0.58073,-0.53233 z"
         style="font-style:normal;font-variant:normal;font-weight:normal;font-stretch:normal;font-family:Lovelo;-inkscape-font-specification:Lovelo;fill:url(#linearGradient1679);fill-opacity:1;stroke:none;stroke-width:1.20983911"
         id="path1072" />
      <path
         inkscape:connector-curvature="0"
         d="m -131.66183,228.39513 c -2.46807,-7.69458 -9.82389,-12.92108 -17.90562,-12.92108 -10.93695,0 -18.48634,7.83975 -18.48634,18.48634 0,10.69498 7.54939,18.53473 18.48634,18.53473 8.08173,0 15.43755,-5.17811 17.90562,-12.96947 0.0968,-0.29036 -0.0968,-0.62912 -0.38715,-0.7259 -0.33875,-0.0968 -0.62912,0.0484 -0.7259,0.38714 -2.32289,7.30743 -9.14639,12.14679 -16.79257,12.14679 -10.25944,0 -17.37329,-7.30743 -17.37329,-17.37329 0,-10.06586 7.11385,-17.3249 17.37329,-17.3249 7.64618,0 14.46968,4.83936 16.79257,12.09839 0.0968,0.33876 0.38715,0.48394 0.7259,0.38715 0.29036,-0.0484 0.48394,-0.43554 0.38715,-0.7259 z m -27.58433,11.22731 c 1.98413,3.48433 5.66204,5.71044 9.67871,5.71044 6.24277,0 11.17891,-5.17811 11.17891,-11.37249 0,-6.14598 -4.93614,-11.3241 -11.17891,-11.3241 -4.01667,0 -7.69458,2.17771 -9.67871,5.66205 -0.14518,0.29036 -0.0484,0.62912 0.19357,0.82269 0.29036,0.14518 0.67751,0.0484 0.82269,-0.24197 1.74217,-3.14558 5.03293,-5.12971 8.66245,-5.12971 5.61365,0 10.01747,4.64578 10.01747,10.21104 0,5.56526 -4.40382,10.21104 -10.01747,10.21104 -3.62952,0 -6.92028,-1.98413 -8.66245,-5.12972 -0.14518,-0.24196 -0.53233,-0.33875 -0.82269,-0.19357 -0.24197,0.14518 -0.33875,0.53233 -0.19357,0.7743 z"
         style="font-style:normal;font-variant:normal;font-weight:normal;font-stretch:normal;font-family:Lovelo;-inkscape-font-specification:Lovelo;fill:url(#linearGradient1681);fill-opacity:1;stroke:none;stroke-width:1.20983911"
         id="path1074" />
      <path
         inkscape:connector-curvature="0"
         d="m -103.33572,223.12023 h -8.66244 c -0.29037,0 -0.53233,0.24197 -0.53233,0.53233 v 27.68112 c 0,0.29036 0.24196,0.53233 0.53233,0.53233 0.29036,0 0.53232,-0.24197 0.53232,-0.53233 v -27.052 h 8.13012 c 0.29037,0 0.53233,-0.29037 0.53233,-0.62912 0,-0.29036 -0.24196,-0.53233 -0.53233,-0.53233 z M -127.5325,217.313 h 24.14839 c 0.33876,0 0.58072,-0.24197 0.58072,-0.53233 0,-0.29036 -0.24196,-0.53233 -0.58072,-0.53233 h -24.14839 c -0.29036,0 -0.53233,0.24197 -0.53233,0.53233 0,0.29036 0.24197,0.53233 0.53233,0.53233 z m 0,6.96868 h 8.08173 v 27.052 c 0,0.29036 0.24196,0.53233 0.58072,0.53233 0.29036,0 0.53233,-0.24197 0.53233,-0.53233 v -27.68112 c 0,-0.29036 -0.24197,-0.53233 -0.53233,-0.53233 h -8.66245 c -0.29036,0 -0.53233,0.24197 -0.53233,0.53233 0,0.33875 0.24197,0.62912 0.53233,0.62912 z"
         style="font-style:normal;font-variant:normal;font-weight:normal;font-stretch:normal;font-family:Lovelo;-inkscape-font-specification:Lovelo;fill:url(#linearGradient1683);fill-opacity:1;stroke:none;stroke-width:1.20983911"
         id="path1076" />
    </g>
  </g>
</svg>
